/* XPM */
static char * main_xpm[] = {
"48 48 2 1",
" 	c None",
".	c #000000",
"                      ....                      ",
"                     ......                     ",
"                     ......                     ",
"                     ......                     ",
"                     ......                     ",
"                     ......                     ",
"       ....          ......          ....       ",
"      ......         ......         ......      ",
"      .......         ....         .......      ",
"      ........                    ........      ",
"      ........                    ........      ",
"       .......                    .......       ",
"        ......       ......       ......        ",
"         ....     ............     ....         ",
"                 ..............                 ",
"                ................                ",
"               ..................               ",
"              ....................              ",
"             ......................             ",
"             ......................             ",
"             ......................             ",
" .......    ........................    ....... ",
".........   ........................   .........",
".........   ........................   .........",
".........   ........................   .........",
".........   ........................   .........",
" .......    ........................    ....... ",
"             ......................             ",
"             ......................             ",
"             ......................             ",
"              ....................              ",
"               ..................               ",
"                ................                ",
"                 ..............                 ",
"         ....     ............     ....         ",
"        ......       ......       ......        ",
"       .......                    .......       ",
"      ........                    ........      ",
"      ........                    ........      ",
"      .......         ....         .......      ",
"       .....         ......         .....       ",
"       ....          ......          ...        ",
"                     ......                     ",
"                     ......                     ",
"                     ......                     ",
"                     ......                     ",
"                     ......                     ",
"                      ....                      "};
